<mxfile host="app.diagrams.net" modified="2023-06-26T04:32:48.902Z" agent="Mozilla/5.0 (X11; Ubuntu; Linux x86_64; rv:109.0) Gecko/20100101 Firefox/114.0" version="21.5.0" etag="d3T5LEyXu_f4C4XMqd9x" type="github">
  <diagram name="Page-1" id="r-T6OLwQH29qr_7euo9l">
    <mxGraphModel>
      <root>
        <mxCell id="0" />
        <mxCell id="1" parent="0" />
      </root>
    </mxGraphModel>
  </diagram>
</mxfile>
